<svg xmlns="http://www.w3.org/2000/svg" viewBox="0 0 67.81 85.51"><g id="Capa_2" data-name="Capa 2"><g id="Capa_1-2" data-name="Capa 1"><path d="M0,18.14c7.67,0,14.66.06,21.64,0,6-.07,7.1-1.68,4.88-7.23-1.62-4.06-1.2-8.21,2.67-10a12.48,12.48,0,0,1,9.6.16c3.55,1.75,4,5.75,2.5,9.65C39,16.58,40,18.08,46.41,18.14c7,.07,13.9,0,21.33,0,0,8.22.2,15.86-.08,23.47-.17,4.48-2.82,4.38-6.28,2.75-4.8-2.26-9.22-.72-11.55,3.58-2,3.76-1.08,9.11,2.82,10.87a14.15,14.15,0,0,0,8.85.48c4.74-1.31,6.17-.82,6.23,4.12.1,7.28,0,14.57,0,22.08H0c0-7.81-.12-15.43,0-23,.08-3.79,2-4.74,5.7-3.35a13.16,13.16,0,0,0,7.59.7c4.58-1.25,6.71-6.58,5-10.94A8.69,8.69,0,0,0,6.86,44C1,46.28.07,45.63,0,39.22,0,32.42,0,25.62,0,18.14Z"/></g></g></svg>