<svg xmlns="http://www.w3.org/2000/svg" viewBox="0 0 67.41 86.55"><g id="Capa_2" data-name="Capa 2"><g id="Capa_1-2" data-name="Capa 1"><path d="M.1,19.08c7.55,0,14.51,0,21.46,0,6.14,0,7.18-1.57,5-7.13-1.64-4-1-7.62,2.52-10.22a7.7,7.7,0,0,1,9.76.07c3.55,2.68,3.87,6.36,2.31,10.31C39,17.35,40.06,19,45.77,19c7.12.07,14.24,0,21.64,0v67.5H.09c0-7.82-.26-15.6.1-23.35C.43,58,3.7,59.37,6.92,60.79a8.53,8.53,0,0,0,11.47-4.85C20,51.61,17.88,46.33,13.32,45a12.72,12.72,0,0,0-7.13.47c-4.85,1.64-6,1.11-6.07-4.07C0,34.13.1,26.85.1,19.08Z"/></g></g></svg>