<svg xmlns="http://www.w3.org/2000/svg" viewBox="0 0 67.47 105.9"><g id="Capa_2" data-name="Capa 2"><g id="Capa_1-2" data-name="Capa 1"><path d="M67.42,86.86c-7.8,0-14.93,0-22.06,0-5.72,0-6.66,1.56-4.54,7,1.55,4,1.15,7.63-2.42,10.28a7.56,7.56,0,0,1-9.74,0c-3.45-2.66-4.17-6.14-2.46-10.23,2.24-5.34,1.16-7-4.51-7-7.13,0-14.26,0-21.69,0V19c7.09,0,14,0,20.93,0,6.57,0,7.5-1.31,5.17-7.27-1.52-3.89-.9-7.32,2.36-9.86a7.75,7.75,0,0,1,10.15,0c3.31,2.58,3.72,6.14,2.3,9.92-2.15,5.7-1.25,7.15,4.75,7.2,7,.06,14,0,21.69,0,0,8.32.35,16.41-.15,24.44C67,47.23,64,46.72,61.14,45.42c-5.63-2.54-11.83.12-12.32,5.71-.24,2.71,1.09,6.56,3.09,8.19s6,2,8.6,1.24c5.81-1.6,6.86-1.29,6.9,4.64C67.45,72.17,67.42,79.14,67.42,86.86Z"/></g></g></svg>